<svg xmlns:xlink="http://www.w3.org/1999/xlink" xmlns="http://www.w3.org/2000/svg" id="148470378" viewBox="0 0 349.99999999999994 51.19032731764707" height="83" width="567.4900224751143" ><defs id="SvgjsDefs2178"></defs><g id="SvgjsG2179" featurekey="nameFeature-0" transform="matrix(1.7651813786662511,0,0,1.7651813786662511,-2.1183936547210225,-19.416927829002976)" fill="#000000"><path d="M2.64 40 l-1.0399 -5.4 l6.24 0 c0.45332 0 0.68 -0.2 0.68 -0.6 l0 -5.28 c0 -0.4 -0.08 -0.64 -0.24 -0.72 s-0.44 -0.12 -0.84 -0.12 l-3 0 c-0.42668 0 -0.83336 -0.03332 -1.22 -0.1 s-0.73336 -0.22 -1.04 -0.46 s-0.54668 -0.57332 -0.72 -1 s-0.26 -1 -0.26 -1.72 l0 -9.84 c0 -1.1467 0.31332 -2.06 0.94 -2.74 s1.62 -1.02 2.98 -1.02 l8 0 l1 5.4 l-6.56 0 c-0.48 0 -0.72 0.21332 -0.72 0.64 l0 5.28 c0 0.29332 0.07332 0.49332 0.22 0.6 s0.36668 0.16 0.66 0.16 l3.64 0 c0.93332 0 1.6466 0.22 2.14 0.66 s0.74 1.2067 0.74 2.3 l0 9.56 c0 1.6 -0.32668 2.7333 -0.98 3.4 s-1.8066 1 -3.46 1 l-7.16 0 z M22.28 26.32 l0 13.68 l-5.64 0 l0 -29 l6.12 0 l3.16 12.24 l3.16 -12.24 l6.16 0 l0 29 l-5.64 0 l0 -13.68 l-3.68 11.6 z M37.64 11 l5.8 0 l0 29 l-5.8 0 l0 -29 z M57.28 11 l1.44 5.4 l-3.88 0 l0 23.6 l-5.92 0 l0 -23.6 l-3.88 0 l1.52 -5.4 l10.72 0 z M75.32000000000001 40 l-5.92 0 l0 -11.6 l-3.16 0 l0 11.6 l-5.92 0 l0 -29 l5.92 0 l0 12.4 l3.16 0 l0 -12.4 l5.92 0 l0 29 z M93.48 16.08 l0 11.4 l2.88 0 c0.24 0 0.39332 -0.04668 0.46 -0.14 s0.1 -0.24664 0.1 -0.45996 l0 -10.24 c0 -0.37332 -0.17332 -0.56 -0.52 -0.56 l-2.92 0 z M99.12 11 c1.1467 0 2.0067 0.31996 2.58 0.95996 s0.86 1.4933 0.86 2.56 l0 13.88 c0 0.56 -0.06 1.0733 -0.18 1.54 s-0.34 0.87336 -0.66 1.22 s-0.74668 0.62 -1.28 0.82 s-1.2 0.3 -2 0.3 l-4.96 0 l0 7.72 l-5.76 0 l0 -29 l11.4 0 z M111.20000000000002 16.08 c-0.34668 0 -0.52 0.18668 -0.52 0.56 l0 17.68 c0 0.21332 0.03332 0.36664 0.1 0.45996 s0.22 0.14 0.46 0.14 l2.2 0 c0.24 0 0.39332 -0.04668 0.46 -0.14 s0.1 -0.24664 0.1 -0.45996 l0 -17.68 c0 -0.37332 -0.17332 -0.56 -0.52 -0.56 l-2.28 0 z M119.88000000000001 35.88 c0 0.56 -0.06668 1.0867 -0.2 1.58 s-0.36 0.92664 -0.68 1.3 s-0.74668 0.67332 -1.28 0.9 s-1.2 0.34 -2 0.34 l-6.72 0 c-0.8 0 -1.4667 -0.11332 -2 -0.34 s-0.96 -0.52668 -1.28 -0.9 s-0.54668 -0.80664 -0.68 -1.3 s-0.2 -1.02 -0.2 -1.58 l0 -21.12 c0 -1.1467 0.31332 -2.06 0.94 -2.74 s1.62 -1.02 2.98 -1.02 l7.2 0 c1.36 0 2.3533 0.34 2.98 1.02 s0.94 1.5933 0.94 2.74 l0 21.12 z M133.72000000000003 11 l1.44 5.4 l-3.88 0 l0 23.6 l-5.92 0 l0 -23.6 l-3.88 0 l1.52 -5.4 l10.72 0 z M148.51999999999998 11 l1.44 5.4 l-3.88 0 l0 23.6 l-5.92 0 l0 -23.6 l-3.88 0 l1.52 -5.4 l10.72 0 z M151.55999999999997 11 l11.28 0 l1 5.4 l-6.32 0 l0 6.88 l4.8 0 l0 5 l-4.8 0 l0 6.32 l6.08 0 l-1 5.4 l-11.04 0 l0 -29 z M171.64 16.08 l0 10 l2.84 0 c0.37332 0 0.56 -0.2 0.56 -0.6 l0 -8.8 c0 -0.4 -0.18668 -0.6 -0.56 -0.6 l-2.84 0 z M180.76 28.2 c0 0.64 -0.22 1.2267 -0.66 1.76 s-1.0867 0.8 -1.94 0.8 l3.04 9.24 l-6 0 l-2.8 -9.24 l-0.76 0 l0 9.24 l-5.8 0 l0 -29 l11 0 c1.36 0 2.3533 0.34 2.98 1.02 s0.94 1.5933 0.94 2.74 l0 13.44 z M193.92000000000002 40 l-6.12 0 l0 -7.36 l-5.56 -21.64 l6 0 l2.6 13.68 l2.64 -13.68 l6 0 l-5.56 21.64 l0 7.36 z"></path></g></svg>